<?xml version="1.0" standalone="no"?>
<!DOCTYPE svg PUBLIC "-//W3C//DTD SVG 20010904//EN"
 "http://www.w3.org/TR/2001/REC-SVG-20010904/DTD/svg10.dtd">
<svg version="1.0" xmlns="http://www.w3.org/2000/svg"
 width="1002.000000pt" height="1002.000000pt" viewBox="0 0 1002.000000 1002.000000"
 preserveAspectRatio="xMidYMid meet">
<metadata>
Created by potrace 1.14, written by Peter Selinger 2001-2017
</metadata>
<g transform="translate(0.000000,1002.000000) scale(0.100000,-0.100000)"
fill="#000000" stroke="none">
<path d="M4205 9974 c-27 -2 -120 -8 -205 -15 -908 -64 -1656 -368 -1849 -751
-185 -367 67 -628 734 -763 641 -129 1730 -158 2394 -64 359 51 586 113 806
219 185 90 293 186 357 318 31 64 32 73 33 182 0 114 -1 117 -38 193 -62 126
-166 222 -341 316 -219 118 -576 221 -1016 291 -311 49 -727 84 -875 74z"/>
<path d="M4005 8234 c-358 -59 -656 -204 -886 -433 -150 -149 -247 -286 -349
-496 -121 -247 -202 -527 -239 -825 -23 -180 -51 -454 -51 -494 l0 -41 -227
-1 c-231 0 -276 -5 -428 -48 -367 -103 -592 -381 -621 -766 -3 -41 -14 -163
-24 -270 -56 -562 -72 -742 -95 -1065 -13 -184 -20 -445 -19 -730 1 -269 5
-364 23 -515 12 -102 25 -198 30 -215 5 -16 14 -57 21 -90 20 -92 63 -218 102
-295 71 -140 197 -256 319 -294 70 -22 393 -44 644 -44 l190 -1 12 -123 c23
-241 52 -461 72 -563 6 -27 18 -86 27 -130 49 -245 143 -477 237 -586 57 -66
143 -118 225 -135 80 -17 614 -20 732 -5 362 47 588 204 737 512 43 89 88 214
104 289 46 221 64 365 75 574 l7 138 171 -6 c94 -3 199 -6 234 -6 l62 0 -5
-53 c-25 -238 -1 -578 52 -737 62 -186 145 -301 273 -376 81 -47 129 -58 370
-84 317 -35 556 -19 675 44 17 9 33 16 38 16 15 0 113 73 153 113 125 128 207
335 264 666 5 31 17 97 25 146 92 516 183 1321 227 2005 13 212 17 977 5 1155
-4 66 -15 171 -23 233 -15 120 -15 120 31 188 13 20 49 87 79 149 170 349 217
694 137 995 -16 59 -39 127 -49 146 -6 11 -32 61 -57 113 -64 128 -123 209
-220 301 -96 92 -159 138 -280 205 l-90 50 -62 145 c-76 177 -103 230 -148
295 -20 28 -47 67 -61 88 -38 57 -230 253 -309 314 -175 135 -443 289 -605
348 -115 41 -287 96 -348 110 -37 9 -85 20 -107 25 -290 69 -823 101 -1050 64z"/>
</g>
</svg>
